<?xml version="1.0" encoding="UTF-8"?>
<svg width="182px" height="97px" viewBox="0 0 182 97" version="1.1" xmlns="http://www.w3.org/2000/svg" xmlns:xlink="http://www.w3.org/1999/xlink">
    <!-- Generator: Sketch 41.2 (35397) - http://www.bohemiancoding.com/sketch -->
    <title>Dog</title>
    <desc>Created with Sketch.</desc>
    <defs></defs>
    <g id="Dashboard" stroke="none" stroke-width="1" fill="none" fill-rule="evenodd">
        <g id="Desktop-HD" transform="translate(-630.000000, -46.000000)" fill="#E5E5E5">
            <g id="Masthead" transform="translate(504.000000, 46.000000)">
                <g id="Dog" transform="translate(126.000000, 0.000000)">
                    <path d="M40.9852579,66.2379984 L40.9852579,71.2910364 L35.900552,71.2910364 L35.900552,81.463013 L30.9901124,81.463013 L30.9901124,71.2910364 L25.8666806,71.2910364 L25.8666806,61.2721821 L20.8439361,61.2721821 L20.8439361,46.2720054 C22.4316965,46.2002899 23.9439415,46.1343891 25.7679297,46.0529823 L25.7679297,35.5766991 L20.7877836,35.5766991 L20.7877836,30.6864749 L5.46202299,30.6864749 L5.46202299,35.5766991 L20.4702315,35.5766991 L20.4702315,40.8758958 L15.6837147,40.8758958 L15.6837147,66.2360602 C16.3091374,66.2980844 20.6367527,66.2360602 20.6367527,66.2360602 C20.6367527,66.2360602 20.6444979,74.2701385 20.6444979,76.6406278 L25.7563119,76.6406278 L25.7563119,81.6219502 L25.7563119,86.6691733 L30.6783692,86.6691733 L30.6783692,91.8055564 L25.8782984,91.8055564 L25.8782984,96.9942723 L36.1019264,96.9942723 L36.1019264,86.7835305 L41.0297926,86.7835305 L41.0297926,76.6406278 C42.7879468,76.5592209 44.3640895,76.7200963 46.0757727,76.6406278 C46.157097,75.026059 45.9867032,73.0412831 46.0757727,71.2890981 L49.2067588,71.2890981 L89.0614815,71.2890981 C89.0614815,71.2890981 150.076497,71.3698225 150.998172,71.313613 L150.998172,66.7152254 C134.014945,66.7171636 58.0672364,66.2379984 40.9852579,66.2379984 Z" id="Shape"></path>
                    <path d="M51.1740326,30.6884131 L51.1740326,15.3354735 C49.4797761,15.2540667 47.9113786,15.4246334 46.0796453,15.3354735 L46.0796453,5.27591581 L41.2176131,5.27591581 L41.2176131,0.240322182 L20.770357,0.240322182 C20.7587392,1.93435945 20.7471214,3.62839672 20.7355037,5.32243399 L15.3990796,5.32243399 C15.3061376,7.17928491 15.4881491,8.75896498 15.3990796,10.5576682 L10.5118756,10.5576682 L10.5118756,15.3354735 C7.11561738,15.3451648 3.71935912,15.323844 0.323100864,15.3354735 L0.323100864,30.6884131 C2.01735741,30.6845366 3.71161395,30.6922896 5.40587049,30.6884131 L5.40587049,20.7025092 L10.5835185,20.7025092 L10.5835185,15.3354735 L20.8110191,15.3354735 L20.8110191,5.39414953 L40.867144,5.39414953 L40.867144,15.3354735 L45.8066279,15.3354735 L45.8066279,30.6884131 L30.7790565,30.6884131 L30.7790565,25.6741403 C32.3532628,25.604363 35.8172913,25.6741403 35.8172913,25.6741403 L35.8172913,15.3354735 L30.7790565,15.3354735 L30.7790565,20.0745137 L25.8182733,20.0745137 L25.8182733,35.5786374 L45.8143731,35.5786374 L45.8143731,30.6884131 C47.4989482,30.6884131 49.5765908,30.6884131 51.1740326,30.6884131 Z" id="Shape"></path>
                    <path d="M45.8143731,35.5786374 C45.9281135,36.0186219 45.8143731,37.22228 45.8143731,37.22228 L45.8143731,40.8797723 L159.604036,40.8797723 L166.03795,40.8797723 L166.03795,35.5805757 C126.160575,35.5786374 85.4339373,35.5786374 45.8143731,35.5786374 Z" id="Shape"></path>
                    <path d="M176.715856,25.6765359 L176.715856,41.1205736 L181.728919,41.1205736 L181.728919,25.6765359 L176.715856,25.6765359 L176.715856,25.6765359 Z M174.247082,40.8778341 C171.660194,40.9999443 169.21272,40.8778341 166.401222,40.8778341 C166.482546,42.5951304 166.316025,44.3318094 166.401222,46.1440804 L171.232274,46.1440804 L171.232274,50.8501702 L166.401222,50.8501702 L166.401222,81.4688278 L161.335879,81.4688278 L161.335879,76.5766652 L156.169849,76.5766652 L156.169849,71.2910364 C154.301326,71.1786174 152.684521,71.3957023 151.0135,71.2910364 C151.011564,74.6151484 151.0135,77.9411987 151.0135,81.5114695 L156.169849,81.5114695 C156.249237,83.3179257 156.090461,84.8956675 156.169849,86.6730498 L161.335879,86.6730498 L161.335879,91.8055564 L156.169849,91.8055564 L156.169849,96.9942723 L166.401222,96.9942723 L166.401222,86.7970983 L171.414285,86.7970983 L171.414285,50.8482319 L176.715856,50.8482319 L176.715856,40.8739576 C176.715856,40.8778341 174.973192,40.8429454 174.247082,40.8778341 Z" id="Combined-Shape"></path>
                    <path d="M46.8317073,46.8709924 C46.9471225,46.8581577 47.1490961,46.838906 47.4376341,46.8132366 C47.7261722,46.7875673 48.053177,46.765107 48.4186585,46.745855 C48.78414,46.726603 49.1624398,46.7105599 49.5535691,46.6977252 C49.9446984,46.6848905 50.2941448,46.6784733 50.6019187,46.6784733 C51.7945425,46.6784733 52.781969,46.8517387 53.5642276,47.1982748 C54.3464863,47.5448109 54.9652308,48.0228952 55.4204797,48.632542 C55.8757286,49.2421888 56.1931156,49.9609195 56.3726504,50.7887557 C56.5521852,51.6165919 56.6419512,52.518214 56.6419512,53.4936489 C56.6419512,54.3792411 56.5521852,55.2455683 56.3726504,56.0926565 C56.1931156,56.9397447 55.8693167,57.6937702 55.4012439,58.3547557 C54.9331711,59.0157412 54.2855732,59.548372 53.4584309,59.9526641 C52.6312885,60.3569562 51.5701257,60.5590992 50.2749106,60.5590992 C50.069728,60.5590992 49.8068417,60.552682 49.4862439,60.5398473 C49.1656461,60.5270127 48.8386412,60.5109696 48.5052195,60.4917176 C48.1717978,60.4724656 47.8512048,60.4532138 47.5434309,60.4339618 C47.235657,60.4147098 46.9984182,60.3922495 46.8317073,60.3665802 L46.8317073,46.8709924 Z M50.6980976,49.0272061 C50.4544432,49.0272061 50.2172044,49.036832 49.986374,49.056084 C49.7555436,49.075336 49.5824233,49.0913791 49.4670081,49.1042137 L49.4670081,58.1333588 C49.5183038,58.1461934 49.5952461,58.1558193 49.6978374,58.1622366 C49.8004287,58.168654 49.9062244,58.1750712 50.0152276,58.1814885 C50.1242309,58.1879059 50.2300266,58.1943231 50.3326179,58.2007405 C50.4352092,58.2071578 50.5185634,58.2103664 50.5826829,58.2103664 C51.3264698,58.2103664 51.9195669,58.0723958 52.3619919,57.7964504 C52.8044168,57.520505 53.1346276,57.157931 53.3526341,56.7087176 C53.5706407,56.2595041 53.7117016,55.7525423 53.7758211,55.1878168 C53.8399407,54.6230913 53.872,54.0583743 53.872,53.4936489 C53.872,53.0059314 53.8431466,52.4989696 53.785439,51.9727481 C53.7277314,51.4465266 53.5930824,50.9652337 53.3814878,50.528855 C53.1698933,50.0924762 52.8525062,49.7331108 52.4293171,49.4507481 C52.006128,49.1683854 51.4290606,49.0272061 50.6980976,49.0272061 Z M65.1056911,57.3632824 L61.0854146,57.3632824 L60.1620976,60.3473282 L57.5267967,60.3473282 L61.8740813,46.8709924 L64.5093821,46.8709924 L68.8374309,60.3473282 L66.0674797,60.3473282 L65.1056911,57.3632824 Z M61.7009593,55.2455725 L64.5863252,55.2455725 L63.2205854,50.740626 L63.0474634,50.740626 L61.7009593,55.2455725 Z M77.4935285,55.8231298 L79.6094634,55.8231298 L79.6094634,59.6735115 C79.1990982,59.9687089 78.6765316,60.1997294 78.041748,60.3665802 C77.4069643,60.5334309 76.7561605,60.616855 76.0893171,60.616855 C75.2429389,60.616855 74.4382504,60.4917188 73.6752276,60.2414427 C72.9122049,59.9911667 72.2421655,59.5868807 71.6650894,59.0285725 C71.0880134,58.4702644 70.6263595,57.7451164 70.2801138,56.8531069 C69.9338682,55.9610973 69.760748,54.8797926 69.760748,53.6091603 C69.760748,52.2871893 69.9563097,51.1802157 70.347439,50.2882061 C70.7385684,49.3961966 71.2418994,48.6774658 71.8574472,48.1319924 C72.4729949,47.5865189 73.159064,47.1950673 73.9156748,46.957626 C74.6722856,46.7201846 75.4160614,46.6014656 76.1470244,46.6014656 C76.9164591,46.6014656 77.5672629,46.665638 78.0994553,46.7939847 C78.6316476,46.9223314 79.0708601,47.0699279 79.4171057,47.2367786 L79.4171057,51.2411756 L77.3011707,51.2411756 L77.3011707,49.046458 C76.9036294,48.9822847 76.4932704,48.9501985 76.0700813,48.9501985 C75.5699487,48.9501985 75.1050889,49.0432484 74.6754878,49.2293511 C74.2458867,49.4154539 73.8707929,49.701021 73.5501951,50.0860611 C73.2295973,50.4711012 72.9795348,50.9556027 72.8,51.5395802 C72.6204652,52.1235576 72.5306992,52.8134108 72.5306992,53.6091603 C72.5306992,54.3022325 72.6140534,54.9343305 72.7807642,55.5054733 C72.9474751,56.0766161 73.1911258,56.5675348 73.5117236,56.9782443 C73.8323214,57.3889537 74.2234448,57.706607 74.6851057,57.9312137 C75.1467665,58.1558205 75.6725391,58.2681221 76.262439,58.2681221 C76.6856281,58.2681221 77.0959872,58.2296187 77.4935285,58.1526107 L77.4935285,55.8231298 Z M88.4386829,54.7065191 L84.0913984,54.7065191 L84.0913984,60.3473282 L81.4560976,60.3473282 L81.4560976,46.8709924 L84.0913984,46.8709924 L84.0913984,52.3577863 L88.4386829,52.3577863 L88.4386829,46.8709924 L91.0739837,46.8709924 L91.0739837,60.3473282 L88.4386829,60.3473282 L88.4386829,54.7065191 Z M93.2860976,55.9386412 L95.4020325,55.9386412 L95.4020325,57.8445802 L95.5174472,57.883084 C95.8123971,58.0114307 96.1361961,58.1173151 96.4888537,58.2007405 C96.8415112,58.2841658 97.2166051,58.3258779 97.6141463,58.3258779 C98.3322854,58.3258779 98.8901173,58.18149 99.2876585,57.8927099 C99.6851998,57.6039299 99.8839675,57.2156869 99.8839675,56.7279695 C99.8839675,56.2915907 99.720465,55.9386426 99.3934553,55.6691145 C99.0664455,55.3995864 98.6624983,55.1621486 98.1816016,54.9567939 C97.7007049,54.7514392 97.1749324,54.5460875 96.6042683,54.3407328 C96.0336042,54.1353781 95.5078317,53.8754799 95.026935,53.5610305 C94.5460382,53.2465811 94.1420911,52.8519209 93.8150813,52.3770382 C93.4880715,51.9021554 93.3245691,51.2861005 93.3245691,50.528855 C93.3245691,49.9512948 93.4367767,49.4218726 93.6611951,48.9405725 C93.8856136,48.4592724 94.1997947,48.0453605 94.603748,47.6988244 C95.0077012,47.3522883 95.4917966,47.0827643 96.0560488,46.8902443 C96.6203009,46.6977242 97.2486632,46.6014656 97.9411545,46.6014656 C98.7234131,46.6014656 99.4928363,46.6720553 100.249447,46.8132366 C101.006058,46.954418 101.608773,47.1469352 102.05761,47.3907939 L102.05761,51.2989313 L99.9416748,51.2989313 L99.9416748,49.1619695 C99.9032031,49.1619695 99.8647319,49.1555522 99.8262602,49.1427176 C99.5441341,49.0657095 99.2395707,49.0047458 98.912561,48.9598244 C98.5855512,48.9149031 98.2617523,48.8924427 97.9411545,48.8924427 C97.3256067,48.8924427 96.8415112,49.0143703 96.4888537,49.258229 C96.1361961,49.5020877 95.9598699,49.8293669 95.9598699,50.2400763 C95.9598699,50.6636204 96.1233723,51.0101513 96.4503821,51.2796794 C96.7773919,51.5492075 97.1813391,51.7930625 97.6622358,52.0112519 C98.1431325,52.2294413 98.668905,52.4476274 99.2395691,52.6658168 C99.8102332,52.8840062 100.336006,53.1503216 100.816902,53.464771 C101.297799,53.7792204 101.701746,54.1738806 102.028756,54.6487634 C102.355766,55.1236461 102.519268,55.7204493 102.519268,56.4391908 C102.519268,57.132263 102.391031,57.7386921 102.134553,58.2584962 C101.878075,58.7783003 101.51901,59.2146725 101.05735,59.567626 C100.595689,59.9205794 100.050681,60.1836862 99.4223089,60.3569542 C98.7939372,60.5302222 98.1142801,60.616855 97.3833171,60.616855 C96.8960084,60.616855 96.4439723,60.5783515 96.0271951,60.5013435 C95.610418,60.4243355 95.2257064,60.3280769 94.8730488,60.2125649 C94.5203912,60.0970529 94.209416,59.9751253 93.9401138,59.8467786 C93.6708117,59.7184319 93.4528084,59.6093389 93.2860976,59.5194962 L93.2860976,55.9386412 Z M111.52161,54.7065191 L107.174325,54.7065191 L107.174325,60.3473282 L104.539024,60.3473282 L104.539024,46.8709924 L107.174325,46.8709924 L107.174325,52.3577863 L111.52161,52.3577863 L111.52161,46.8709924 L114.156911,46.8709924 L114.156911,60.3473282 L111.52161,60.3473282 L111.52161,54.7065191 Z M123.197724,46.8709924 L125.698374,46.8709924 L125.698374,55.4958473 C125.698374,56.3686049 125.582961,57.1226304 125.35213,57.7579466 C125.1213,58.3932627 124.797501,58.9194763 124.380724,59.3366031 C123.963946,59.7537298 123.467027,60.0649659 122.889951,60.2703206 C122.312875,60.4756753 121.678101,60.5783511 120.98561,60.5783511 C119.318501,60.5783511 118.084218,60.1740651 117.282724,59.3654809 C116.481229,58.5568967 116.080488,57.3761248 116.080488,55.8231298 L116.080488,46.8709924 L118.715789,46.8709924 L118.715789,55.3033282 C118.715789,56.3301018 118.901733,57.0745015 119.273626,57.5365496 C119.645519,57.9985977 120.228999,58.2296183 121.024081,58.2296183 C121.793516,58.2296183 122.348142,57.9825546 122.687976,57.4884198 C123.027809,56.9942851 123.197724,56.2659285 123.197724,55.3033282 L123.197724,46.8709924 Z M130.21878,52.3770382 L130.122602,52.3770382 L130.238016,53.9749466 L130.238016,60.3473282 L127.737366,60.3473282 L127.737366,46.8709924 L130.045659,46.8709924 L134.700715,55.1108092 L134.796894,55.1108092 L134.623772,53.4936489 L134.623772,46.8709924 L137.124423,46.8709924 L137.124423,60.3473282 L134.81613,60.3473282 L130.21878,52.3770382 Z M139.163415,46.8709924 C139.27883,46.8581577 139.480803,46.838906 139.769341,46.8132366 C140.057879,46.7875673 140.384884,46.765107 140.750366,46.745855 C141.115847,46.726603 141.494147,46.7105599 141.885276,46.6977252 C142.276406,46.6848905 142.625852,46.6784733 142.933626,46.6784733 C144.12625,46.6784733 145.113676,46.8517387 145.895935,47.1982748 C146.678194,47.5448109 147.296938,48.0228952 147.752187,48.632542 C148.207436,49.2421888 148.524823,49.9609195 148.704358,50.7887557 C148.883892,51.6165919 148.973659,52.518214 148.973659,53.4936489 C148.973659,54.3792411 148.883892,55.2455683 148.704358,56.0926565 C148.524823,56.9397447 148.201024,57.6937702 147.732951,58.3547557 C147.264878,59.0157412 146.617281,59.548372 145.790138,59.9526641 C144.962996,60.3569562 143.901833,60.5590992 142.606618,60.5590992 C142.401435,60.5590992 142.138549,60.552682 141.817951,60.5398473 C141.497353,60.5270127 141.170349,60.5109696 140.836927,60.4917176 C140.503505,60.4724656 140.182912,60.4532138 139.875138,60.4339618 C139.567364,60.4147098 139.330125,60.3922495 139.163415,60.3665802 L139.163415,46.8709924 Z M143.029805,49.0272061 C142.786151,49.0272061 142.548912,49.036832 142.318081,49.056084 C142.087251,49.075336 141.914131,49.0913791 141.798715,49.1042137 L141.798715,58.1333588 C141.850011,58.1461934 141.926953,58.1558193 142.029545,58.1622366 C142.132136,58.168654 142.237932,58.1750712 142.346935,58.1814885 C142.455938,58.1879059 142.561734,58.1943231 142.664325,58.2007405 C142.766917,58.2071578 142.850271,58.2103664 142.91439,58.2103664 C143.658177,58.2103664 144.251274,58.0723958 144.693699,57.7964504 C145.136124,57.520505 145.466335,57.157931 145.684341,56.7087176 C145.902348,56.2595041 146.043409,55.7525423 146.107528,55.1878168 C146.171648,54.6230913 146.203707,54.0583743 146.203707,53.4936489 C146.203707,53.0059314 146.174854,52.4989696 146.117146,51.9727481 C146.059439,51.4465266 145.92479,50.9652337 145.713195,50.528855 C145.501601,50.0924762 145.184213,49.7331108 144.761024,49.4507481 C144.337835,49.1683854 143.760768,49.0272061 143.029805,49.0272061 Z" id="DACHSHUND"></path>
                </g>
            </g>
        </g>
    </g>
</svg>